<svg xmlns="http://www.w3.org/2000/svg" xmlns:xlink="http://www.w3.org/1999/xlink" width="500" zoomAndPan="magnify" viewBox="0 0 375 374.999991" height="500" preserveAspectRatio="xMidYMid meet" version="1.0"><defs><g/><clipPath id="53c987cb2d"><path d="M 97.230469 50.507812 L 277.746094 50.507812 L 277.746094 231.082031 L 97.230469 231.082031 Z M 97.230469 50.507812 " clip-rule="nonzero"/></clipPath></defs><rect x="-37.5" width="450" fill="#ffffff" y="-37.499999" height="449.999989" fill-opacity="1"/><rect x="-37.5" width="450" fill="#f6faf8" y="-37.499999" height="449.999989" fill-opacity="1"/><path fill="#165a43" d="M 187.375 227.234375 C 219.824219 209.03125 272.230469 172.933594 274.667969 135.976562 L 274.667969 54.351562 L 187.375 80.835938 L 100.308594 54.351562 L 100.308594 135.976562 C 102.742188 172.933594 154.925781 209.03125 187.375 227.234375 " fill-opacity="1" fill-rule="nonzero"/><path fill="#ffffff" d="M 152.210938 153.53125 C 149.613281 154.878906 146.621094 160.976562 146.195312 163.984375 C 145.863281 166.300781 147.738281 168.761719 148.695312 168.761719 C 150.097656 164.53125 154.335938 157.253906 157.484375 155.484375 C 156.1875 153.949219 153.980469 152.585938 152.210938 153.53125 " fill-opacity="1" fill-rule="nonzero"/><path fill="#ffffff" d="M 127.96875 142.929688 C 125.761719 142.929688 123.960938 141.132812 123.960938 138.921875 C 123.960938 136.710938 125.761719 134.914062 127.96875 134.914062 C 130.179688 134.914062 131.980469 136.710938 131.980469 138.921875 C 131.980469 141.132812 130.179688 142.929688 127.96875 142.929688 Z M 145.371094 106.710938 L 113.1875 138.128906 L 129.824219 149.34375 L 153.984375 114.597656 L 145.371094 106.710938 " fill-opacity="1" fill-rule="nonzero"/><path fill="#ffffff" d="M 200.453125 156.113281 L 222.328125 171.011719 C 225.167969 171.011719 227.550781 168.410156 227.601562 165.8125 C 227.597656 165.808594 214.097656 154.972656 214.097656 154.972656 C 212.300781 154.09375 206.183594 150.882812 199.1875 144.9375 C 194.984375 141.367188 192.078125 135.21875 190.589844 131.480469 L 182.933594 131.664062 C 181.203125 134.863281 177.925781 140.699219 175.253906 144.1875 C 174.003906 145.820312 172.023438 146.71875 169.675781 146.71875 C 166.269531 146.71875 162.679688 144.84375 160.949219 142.15625 C 159.535156 139.960938 159.347656 137.332031 160.4375 134.945312 C 161.027344 133.648438 161.566406 132.488281 162.070312 131.394531 C 164.007812 127.207031 165.40625 124.179688 167.515625 118.464844 C 168.320312 116.28125 170.597656 113.765625 173.449219 111.429688 C 167.757812 113.4375 161.703125 115.898438 156.894531 117.941406 L 151.625 125.519531 C 147.539062 133.933594 142.398438 145.953125 141.703125 154.296875 C 142.585938 154.980469 143.5 155.695312 144.429688 156.433594 C 150.863281 144.082031 159.320312 149.589844 162.019531 154.558594 C 165.089844 154.839844 168.355469 156.730469 170.179688 159.347656 C 170.929688 160.421875 171.402344 161.585938 171.59375 162.753906 C 173.390625 163.128906 175.132812 164.097656 176.542969 165.539062 C 178.253906 167.289062 179.164062 169.40625 179.109375 171.507812 C 179.105469 171.714844 179.085938 171.933594 179.066406 172.148438 C 182.046875 173.332031 183.898438 176.359375 183.898438 180.285156 C 183.898438 181.03125 183.855469 181.757812 183.796875 182.414062 C 187.359375 184.816406 186.125 184.078125 188.664062 185.242188 C 191.316406 186.457031 195.410156 187.140625 197.855469 185.589844 C 197.847656 185.578125 185.621094 174.445312 185.613281 174.4375 C 185.222656 174.082031 185.195312 173.476562 185.554688 173.089844 C 185.886719 172.722656 186.4375 172.679688 186.824219 172.964844 C 186.929688 173.042969 202.132812 184.199219 202.222656 184.292969 C 204.566406 185.074219 207.632812 184.507812 209.617188 181.996094 L 192.261719 165.695312 C 191.933594 165.382812 191.917969 164.867188 192.226562 164.535156 C 192.519531 164.226562 192.996094 164.195312 193.328125 164.453125 C 193.601562 164.664062 212.371094 179.1875 212.589844 179.457031 L 212.597656 179.464844 C 216.195312 179.898438 219.394531 177.628906 220.273438 174.320312 C 219.984375 174.144531 199.675781 157.726562 199.410156 157.511719 C 199.039062 157.207031 198.980469 156.660156 199.28125 156.285156 C 199.570312 155.929688 200.082031 155.859375 200.453125 156.113281 " fill-opacity="1" fill-rule="nonzero"/><path fill="#ffffff" d="M 157.851562 177.21875 C 158.976562 171.40625 163.246094 164.558594 167.265625 163.054688 C 167 162.15625 166.398438 161.355469 165.703125 160.738281 C 164.027344 159.210938 161.65625 158.601562 161.230469 158.816406 C 157.675781 158.816406 152.148438 169.640625 152.359375 172.339844 C 152.589844 174.757812 155.308594 177.046875 157.851562 177.21875 " fill-opacity="1" fill-rule="nonzero"/><path fill="#ffffff" d="M 232.621094 156.417969 C 232.800781 144.4375 224.78125 127.890625 217.523438 117.449219 C 212.011719 115.210938 193.664062 108.097656 189.816406 107.796875 C 189.199219 107.75 188.410156 107.921875 187.820312 108.097656 C 171.589844 112.875 170.914062 122.289062 164.347656 136.722656 C 162.394531 140.949219 170 144 171.84375 141.578125 C 175.398438 136.933594 180.320312 127.429688 180.320312 127.429688 L 193.578125 127.109375 C 193.578125 127.109375 196.761719 137.234375 201.96875 141.664062 C 209.777344 148.296875 216.398438 151.316406 216.398438 151.316406 L 227.925781 160.570312 L 232.621094 156.417969 " fill-opacity="1" fill-rule="nonzero"/><path fill="#ffffff" d="M 261.574219 138.128906 L 229.382812 106.710938 L 220.773438 114.597656 L 244.933594 149.34375 L 261.574219 138.128906 " fill-opacity="1" fill-rule="nonzero"/><path fill="#ffffff" d="M 183.777344 187.578125 L 179.15625 184.464844 C 179.882812 181.152344 180.152344 176.503906 176.828125 175.949219 C 173.011719 175.3125 171.742188 179.578125 171.128906 183.390625 C 170.730469 186.011719 179.816406 189.652344 183.777344 187.578125 " fill-opacity="1" fill-rule="nonzero"/><path fill="#ffffff" d="M 166.855469 183.015625 C 167.445312 177.953125 169.710938 172.488281 174.796875 171.695312 C 174.988281 168.492188 170.351562 165.320312 167.722656 167.71875 C 164.636719 170.539062 162.726562 174.847656 162.089844 177.875 C 161.597656 180.21875 164.449219 182.796875 166.855469 183.015625 " fill-opacity="1" fill-rule="nonzero"/><path fill="#259e74" d="M 127.96875 134.914062 C 125.761719 134.914062 123.960938 136.710938 123.960938 138.921875 C 123.960938 141.132812 125.761719 142.929688 127.96875 142.929688 C 130.179688 142.929688 131.980469 141.132812 131.980469 138.921875 C 131.980469 136.710938 130.179688 134.914062 127.96875 134.914062 " fill-opacity="1" fill-rule="nonzero"/><g clip-path="url(#53c987cb2d)"><path fill="#259e74" d="M 187.375 224.011719 C 166.417969 212.09375 106.023438 174.515625 103.371094 136.21875 C 105.207031 137.492188 106.933594 138.6875 108.523438 139.792969 C 130.75 155.21875 129.441406 154.457031 130.375 154.457031 C 131.59375 154.457031 131.992188 153.75 132.648438 152.808594 C 135.113281 154.644531 138.785156 157.425781 142.683594 160.539062 C 142.28125 161.75 142.027344 162.761719 141.941406 163.378906 C 141.335938 167.59375 143.910156 172.019531 148.125 173.074219 C 148.757812 177.726562 153.429688 181.53125 158.445312 181.53125 C 160.050781 185.109375 164.113281 187.65625 168.183594 187.296875 C 171.285156 191.246094 180.5 194.132812 185.769531 191.378906 L 188.679688 189.855469 C 190.484375 190.464844 192.34375 190.78125 194.148438 190.78125 C 196.996094 190.78125 199.453125 189.964844 201.167969 188.460938 C 205.761719 189.707031 210.972656 187.902344 213.230469 184.316406 C 213.335938 184.152344 213.433594 183.980469 213.527344 183.808594 C 217.496094 183.808594 221.097656 181.769531 223.175781 178.367188 C 223.828125 177.296875 224.277344 176.167969 224.535156 175.027344 C 227.589844 174.261719 230.179688 171.96875 231.320312 168.855469 C 232.03125 166.925781 232.082031 164.941406 231.546875 163.101562 C 232.648438 162.128906 241.328125 154.453125 242.519531 153.402344 C 243.363281 154.621094 244.65625 154.707031 245.582031 154.089844 L 271.601562 136.230469 C 268.941406 174.410156 208.386719 212.066406 187.375 224.011719 Z M 220.773438 114.597656 L 229.382812 106.710938 L 261.574219 138.128906 L 244.933594 149.34375 Z M 216.398438 151.316406 C 216.398438 151.316406 209.777344 148.296875 201.96875 141.664062 C 196.761719 137.234375 193.578125 127.109375 193.578125 127.109375 L 180.320312 127.429688 C 180.320312 127.429688 175.398438 136.933594 171.84375 141.578125 C 170 144 162.394531 140.949219 164.347656 136.722656 C 170.914062 122.289062 171.589844 112.875 187.820312 108.097656 C 188.410156 107.921875 189.199219 107.75 189.816406 107.796875 C 193.664062 108.097656 212.011719 115.210938 217.523438 117.449219 C 224.78125 127.890625 232.800781 144.4375 232.621094 156.417969 L 227.925781 160.570312 Z M 129.824219 149.34375 L 113.1875 138.128906 L 145.371094 106.710938 L 153.984375 114.597656 Z M 176.828125 175.949219 C 180.152344 176.503906 179.882812 181.152344 179.15625 184.464844 L 183.777344 187.578125 C 179.816406 189.652344 170.730469 186.011719 171.128906 183.390625 C 171.742188 179.578125 173.011719 175.3125 176.828125 175.949219 Z M 162.089844 177.875 C 162.726562 174.847656 164.636719 170.539062 167.722656 167.71875 C 170.351562 165.320312 174.988281 168.492188 174.796875 171.695312 C 169.710938 172.488281 167.445312 177.953125 166.855469 183.015625 C 164.449219 182.796875 161.597656 180.21875 162.089844 177.875 Z M 148.695312 168.761719 C 147.738281 168.761719 145.863281 166.300781 146.195312 163.984375 C 146.621094 160.976562 149.613281 154.878906 152.210938 153.53125 C 153.980469 152.585938 156.1875 153.949219 157.484375 155.484375 C 154.335938 157.253906 150.097656 164.53125 148.695312 168.761719 Z M 161.230469 158.816406 C 161.65625 158.601562 164.027344 159.210938 165.703125 160.738281 C 166.398438 161.355469 167 162.15625 167.265625 163.054688 C 163.246094 164.558594 158.976562 171.40625 157.851562 177.21875 C 155.308594 177.046875 152.589844 174.757812 152.359375 172.339844 C 152.148438 169.640625 157.675781 158.816406 161.230469 158.816406 Z M 199.410156 157.511719 C 199.675781 157.726562 219.984375 174.144531 220.273438 174.320312 C 219.394531 177.628906 216.195312 179.898438 212.597656 179.464844 L 212.589844 179.457031 C 212.371094 179.1875 193.601562 164.664062 193.328125 164.453125 C 192.996094 164.195312 192.519531 164.226562 192.226562 164.535156 C 191.917969 164.867188 191.933594 165.382812 192.261719 165.695312 L 209.617188 181.996094 C 207.632812 184.507812 204.566406 185.074219 202.222656 184.292969 C 202.132812 184.199219 186.929688 173.042969 186.824219 172.964844 C 186.4375 172.679688 185.886719 172.722656 185.554688 173.089844 C 185.195312 173.476562 185.222656 174.082031 185.613281 174.4375 C 185.621094 174.445312 197.847656 185.578125 197.855469 185.589844 C 195.410156 187.140625 191.316406 186.457031 188.664062 185.242188 C 186.125 184.078125 187.359375 184.816406 183.796875 182.414062 C 183.855469 181.757812 183.898438 181.03125 183.898438 180.285156 C 183.898438 176.359375 182.046875 173.332031 179.066406 172.148438 C 179.085938 171.933594 179.105469 171.714844 179.109375 171.507812 C 179.164062 169.40625 178.253906 167.289062 176.542969 165.539062 C 175.132812 164.097656 173.390625 163.128906 171.59375 162.753906 C 171.402344 161.585938 170.929688 160.421875 170.179688 159.347656 C 168.355469 156.730469 165.089844 154.839844 162.019531 154.558594 C 159.320312 149.589844 150.863281 144.082031 144.429688 156.433594 C 143.5 155.695312 142.585938 154.980469 141.703125 154.296875 C 142.398438 145.953125 147.539062 133.933594 151.625 125.519531 L 156.894531 117.941406 C 161.703125 115.898438 167.757812 113.4375 173.449219 111.429688 C 170.597656 113.765625 168.320312 116.28125 167.515625 118.464844 C 165.40625 124.179688 164.007812 127.207031 162.070312 131.394531 C 161.566406 132.488281 161.027344 133.648438 160.4375 134.945312 C 159.347656 137.332031 159.535156 139.960938 160.949219 142.15625 C 162.679688 144.84375 166.269531 146.71875 169.675781 146.71875 C 172.023438 146.71875 174.003906 145.820312 175.253906 144.1875 C 177.925781 140.699219 181.203125 134.863281 182.933594 131.664062 L 190.589844 131.480469 C 192.078125 135.21875 194.984375 141.367188 199.1875 144.9375 C 206.183594 150.882812 212.300781 154.09375 214.097656 154.972656 C 214.097656 154.972656 227.597656 165.808594 227.601562 165.8125 C 227.550781 168.410156 225.167969 171.011719 222.328125 171.011719 L 200.453125 156.113281 C 200.082031 155.859375 199.570312 155.929688 199.28125 156.285156 C 198.980469 156.660156 199.039062 157.207031 199.410156 157.511719 Z M 187.375 84.367188 L 271.566406 58.820312 L 271.566406 64.878906 L 216.574219 112.445312 C 211.707031 110.519531 193.019531 103.035156 187.828125 103.332031 C 181.183594 103.691406 168.222656 108.558594 158.390625 112.640625 C 158.339844 112.585938 158.292969 112.53125 158.234375 112.488281 L 103.40625 64.925781 L 103.40625 58.824219 Z M 277.742188 50.511719 L 187.378906 77.925781 L 97.230469 50.507812 L 97.230469 136.492188 C 99.949219 177.738281 160.117188 215.789062 185.867188 230.234375 L 187.375 231.082031 L 188.882812 230.234375 C 214.703125 215.753906 275.03125 177.621094 277.742188 136.492188 L 277.742188 50.511719 " fill-opacity="1" fill-rule="nonzero"/></g><g fill="#39827a" fill-opacity="1"><g transform="translate(99.621092, 275.055611)"><g><path d="M 8.078125 -18.8125 L 8.078125 -12.703125 L 18.78125 -12.703125 L 18.78125 -8.421875 L 8.078125 -8.421875 L 8.078125 0 L 2.734375 0 L 2.734375 -23.09375 L 20.203125 -23.09375 L 20.203125 -18.8125 Z M 8.078125 -18.8125 "/></g></g></g><g fill="#39827a" fill-opacity="1"><g transform="translate(120.708042, 275.055611)"><g><path d="M 9.53125 -18.015625 C 12.28125 -18.015625 14.390625 -17.359375 15.859375 -16.046875 C 17.335938 -14.742188 18.078125 -12.769531 18.078125 -10.125 L 18.078125 0 L 13.265625 0 L 13.265625 -2.21875 C 12.296875 -0.5625 10.492188 0.265625 7.859375 0.265625 C 6.492188 0.265625 5.3125 0.0351562 4.3125 -0.421875 C 3.3125 -0.890625 2.546875 -1.53125 2.015625 -2.34375 C 1.484375 -3.15625 1.21875 -4.078125 1.21875 -5.109375 C 1.21875 -6.765625 1.835938 -8.0625 3.078125 -9 C 4.328125 -9.945312 6.25 -10.421875 8.84375 -10.421875 L 12.9375 -10.421875 C 12.9375 -11.546875 12.59375 -12.410156 11.90625 -13.015625 C 11.226562 -13.617188 10.207031 -13.921875 8.84375 -13.921875 C 7.894531 -13.921875 6.960938 -13.769531 6.046875 -13.46875 C 5.140625 -13.175781 4.367188 -12.78125 3.734375 -12.28125 L 1.875 -15.875 C 2.84375 -16.550781 4.003906 -17.078125 5.359375 -17.453125 C 6.710938 -17.828125 8.101562 -18.015625 9.53125 -18.015625 Z M 9.140625 -3.203125 C 10.023438 -3.203125 10.804688 -3.40625 11.484375 -3.8125 C 12.160156 -4.21875 12.644531 -4.816406 12.9375 -5.609375 L 12.9375 -7.421875 L 9.40625 -7.421875 C 7.289062 -7.421875 6.234375 -6.726562 6.234375 -5.34375 C 6.234375 -4.6875 6.488281 -4.164062 7 -3.78125 C 7.519531 -3.394531 8.234375 -3.203125 9.140625 -3.203125 Z M 9.140625 -3.203125 "/></g></g></g><g fill="#39827a" fill-opacity="1"><g transform="translate(141.069003, 275.055611)"><g><path d="M 7.296875 -15.40625 C 7.910156 -16.269531 8.738281 -16.921875 9.78125 -17.359375 C 10.832031 -17.796875 12.035156 -18.015625 13.390625 -18.015625 L 13.390625 -13.265625 C 12.828125 -13.304688 12.445312 -13.328125 12.25 -13.328125 C 10.769531 -13.328125 9.613281 -12.914062 8.78125 -12.09375 C 7.945312 -11.269531 7.53125 -10.03125 7.53125 -8.375 L 7.53125 0 L 2.375 0 L 2.375 -17.75 L 7.296875 -17.75 Z M 7.296875 -15.40625 "/></g></g></g><g fill="#39827a" fill-opacity="1"><g transform="translate(155.291971, 275.055611)"><g><path d="M 19.765625 -8.8125 C 19.765625 -8.75 19.734375 -8.285156 19.671875 -7.421875 L 6.234375 -7.421875 C 6.472656 -6.328125 7.046875 -5.457031 7.953125 -4.8125 C 8.859375 -4.175781 9.976562 -3.859375 11.3125 -3.859375 C 12.238281 -3.859375 13.054688 -3.992188 13.765625 -4.265625 C 14.484375 -4.546875 15.15625 -4.984375 15.78125 -5.578125 L 18.515625 -2.609375 C 16.835938 -0.691406 14.394531 0.265625 11.1875 0.265625 C 9.1875 0.265625 7.414062 -0.125 5.875 -0.90625 C 4.332031 -1.6875 3.144531 -2.769531 2.3125 -4.15625 C 1.476562 -5.539062 1.0625 -7.113281 1.0625 -8.875 C 1.0625 -10.613281 1.472656 -12.179688 2.296875 -13.578125 C 3.117188 -14.972656 4.25 -16.0625 5.6875 -16.84375 C 7.132812 -17.625 8.75 -18.015625 10.53125 -18.015625 C 12.269531 -18.015625 13.84375 -17.640625 15.25 -16.890625 C 16.65625 -16.148438 17.757812 -15.078125 18.5625 -13.671875 C 19.363281 -12.273438 19.765625 -10.65625 19.765625 -8.8125 Z M 10.5625 -14.125 C 9.394531 -14.125 8.414062 -13.789062 7.625 -13.125 C 6.832031 -12.46875 6.347656 -11.566406 6.171875 -10.421875 L 14.921875 -10.421875 C 14.742188 -11.546875 14.257812 -12.441406 13.46875 -13.109375 C 12.675781 -13.785156 11.707031 -14.125 10.5625 -14.125 Z M 10.5625 -14.125 "/></g></g></g><g fill="#39827a" fill-opacity="1"><g transform="translate(176.11493, 275.055611)"><g><path d="M 10.328125 0.390625 C 8.503906 0.390625 6.738281 0.144531 5.03125 -0.34375 C 3.320312 -0.84375 1.953125 -1.488281 0.921875 -2.28125 L 2.734375 -6.296875 C 3.722656 -5.578125 4.898438 -4.992188 6.265625 -4.546875 C 7.628906 -4.109375 8.992188 -3.890625 10.359375 -3.890625 C 11.878906 -3.890625 13 -4.113281 13.71875 -4.5625 C 14.445312 -5.019531 14.8125 -5.625 14.8125 -6.375 C 14.8125 -6.914062 14.597656 -7.367188 14.171875 -7.734375 C 13.742188 -8.097656 13.191406 -8.390625 12.515625 -8.609375 C 11.847656 -8.828125 10.941406 -9.070312 9.796875 -9.34375 C 8.035156 -9.757812 6.59375 -10.175781 5.46875 -10.59375 C 4.351562 -11.007812 3.394531 -11.675781 2.59375 -12.59375 C 1.789062 -13.519531 1.390625 -14.753906 1.390625 -16.296875 C 1.390625 -17.640625 1.75 -18.851562 2.46875 -19.9375 C 3.195312 -21.03125 4.289062 -21.894531 5.75 -22.53125 C 7.21875 -23.175781 9.007812 -23.5 11.125 -23.5 C 12.59375 -23.5 14.03125 -23.320312 15.4375 -22.96875 C 16.851562 -22.613281 18.085938 -22.109375 19.140625 -21.453125 L 17.484375 -17.390625 C 15.347656 -18.597656 13.21875 -19.203125 11.09375 -19.203125 C 9.59375 -19.203125 8.484375 -18.957031 7.765625 -18.46875 C 7.054688 -17.988281 6.703125 -17.351562 6.703125 -16.5625 C 6.703125 -15.769531 7.113281 -15.179688 7.9375 -14.796875 C 8.757812 -14.410156 10.019531 -14.03125 11.71875 -13.65625 C 13.476562 -13.238281 14.914062 -12.820312 16.03125 -12.40625 C 17.15625 -11.988281 18.117188 -11.328125 18.921875 -10.421875 C 19.722656 -9.523438 20.125 -8.304688 20.125 -6.765625 C 20.125 -5.441406 19.753906 -4.234375 19.015625 -3.140625 C 18.285156 -2.054688 17.179688 -1.195312 15.703125 -0.5625 C 14.234375 0.0703125 12.441406 0.390625 10.328125 0.390625 Z M 10.328125 0.390625 "/></g></g></g><g fill="#39827a" fill-opacity="1"><g transform="translate(197.168887, 275.055611)"><g><path d="M 13.171875 -18.015625 C 15.367188 -18.015625 17.144531 -17.351562 18.5 -16.03125 C 19.851562 -14.71875 20.53125 -12.757812 20.53125 -10.15625 L 20.53125 0 L 15.375 0 L 15.375 -9.375 C 15.375 -10.78125 15.066406 -11.828125 14.453125 -12.515625 C 13.835938 -13.210938 12.945312 -13.5625 11.78125 -13.5625 C 10.476562 -13.5625 9.441406 -13.160156 8.671875 -12.359375 C 7.910156 -11.554688 7.53125 -10.363281 7.53125 -8.78125 L 7.53125 0 L 2.375 0 L 2.375 -24.484375 L 7.53125 -24.484375 L 7.53125 -15.90625 C 8.207031 -16.582031 9.03125 -17.101562 10 -17.46875 C 10.96875 -17.832031 12.023438 -18.015625 13.171875 -18.015625 Z M 13.171875 -18.015625 "/></g></g></g><g fill="#39827a" fill-opacity="1"><g transform="translate(219.971834, 275.055611)"><g><path d="M 9.53125 -18.015625 C 12.28125 -18.015625 14.390625 -17.359375 15.859375 -16.046875 C 17.335938 -14.742188 18.078125 -12.769531 18.078125 -10.125 L 18.078125 0 L 13.265625 0 L 13.265625 -2.21875 C 12.296875 -0.5625 10.492188 0.265625 7.859375 0.265625 C 6.492188 0.265625 5.3125 0.0351562 4.3125 -0.421875 C 3.3125 -0.890625 2.546875 -1.53125 2.015625 -2.34375 C 1.484375 -3.15625 1.21875 -4.078125 1.21875 -5.109375 C 1.21875 -6.765625 1.835938 -8.0625 3.078125 -9 C 4.328125 -9.945312 6.25 -10.421875 8.84375 -10.421875 L 12.9375 -10.421875 C 12.9375 -11.546875 12.59375 -12.410156 11.90625 -13.015625 C 11.226562 -13.617188 10.207031 -13.921875 8.84375 -13.921875 C 7.894531 -13.921875 6.960938 -13.769531 6.046875 -13.46875 C 5.140625 -13.175781 4.367188 -12.78125 3.734375 -12.28125 L 1.875 -15.875 C 2.84375 -16.550781 4.003906 -17.078125 5.359375 -17.453125 C 6.710938 -17.828125 8.101562 -18.015625 9.53125 -18.015625 Z M 9.140625 -3.203125 C 10.023438 -3.203125 10.804688 -3.40625 11.484375 -3.8125 C 12.160156 -4.21875 12.644531 -4.816406 12.9375 -5.609375 L 12.9375 -7.421875 L 9.40625 -7.421875 C 7.289062 -7.421875 6.234375 -6.726562 6.234375 -5.34375 C 6.234375 -4.6875 6.488281 -4.164062 7 -3.78125 C 7.519531 -3.394531 8.234375 -3.203125 9.140625 -3.203125 Z M 9.140625 -3.203125 "/></g></g></g><g fill="#39827a" fill-opacity="1"><g transform="translate(240.332794, 275.055611)"><g><path d="M 7.296875 -15.40625 C 7.910156 -16.269531 8.738281 -16.921875 9.78125 -17.359375 C 10.832031 -17.796875 12.035156 -18.015625 13.390625 -18.015625 L 13.390625 -13.265625 C 12.828125 -13.304688 12.445312 -13.328125 12.25 -13.328125 C 10.769531 -13.328125 9.613281 -12.914062 8.78125 -12.09375 C 7.945312 -11.269531 7.53125 -10.03125 7.53125 -8.375 L 7.53125 0 L 2.375 0 L 2.375 -17.75 L 7.296875 -17.75 Z M 7.296875 -15.40625 "/></g></g></g><g fill="#39827a" fill-opacity="1"><g transform="translate(254.555763, 275.055611)"><g><path d="M 19.765625 -8.8125 C 19.765625 -8.75 19.734375 -8.285156 19.671875 -7.421875 L 6.234375 -7.421875 C 6.472656 -6.328125 7.046875 -5.457031 7.953125 -4.8125 C 8.859375 -4.175781 9.976562 -3.859375 11.3125 -3.859375 C 12.238281 -3.859375 13.054688 -3.992188 13.765625 -4.265625 C 14.484375 -4.546875 15.15625 -4.984375 15.78125 -5.578125 L 18.515625 -2.609375 C 16.835938 -0.691406 14.394531 0.265625 11.1875 0.265625 C 9.1875 0.265625 7.414062 -0.125 5.875 -0.90625 C 4.332031 -1.6875 3.144531 -2.769531 2.3125 -4.15625 C 1.476562 -5.539062 1.0625 -7.113281 1.0625 -8.875 C 1.0625 -10.613281 1.472656 -12.179688 2.296875 -13.578125 C 3.117188 -14.972656 4.25 -16.0625 5.6875 -16.84375 C 7.132812 -17.625 8.75 -18.015625 10.53125 -18.015625 C 12.269531 -18.015625 13.84375 -17.640625 15.25 -16.890625 C 16.65625 -16.148438 17.757812 -15.078125 18.5625 -13.671875 C 19.363281 -12.273438 19.765625 -10.65625 19.765625 -8.8125 Z M 10.5625 -14.125 C 9.394531 -14.125 8.414062 -13.789062 7.625 -13.125 C 6.832031 -12.46875 6.347656 -11.566406 6.171875 -10.421875 L 14.921875 -10.421875 C 14.742188 -11.546875 14.257812 -12.441406 13.46875 -13.109375 C 12.675781 -13.785156 11.707031 -14.125 10.5625 -14.125 Z M 10.5625 -14.125 "/></g></g></g></svg>